<?xml version="1.0" encoding="UTF-8"?>
<svg xmlns="http://www.w3.org/2000/svg" viewBox="0 0 506.05 181.1">
  <defs>
    <style>.cls-1{fill:#cf2223;}</style>
  </defs>
  <g id="Layer_2" data-name="Layer 2">
    <g id="Layer_1-2" data-name="Layer 1">
      <path class="cls-1" d="M63.12,105.08A119.36,119.36,0,0,1,71,83.72l-.66.32c-3,1.43-3.39,1.65-4,2l-1.38.76h0l-.22.12-3.15,1.72h-.09l0,0h0l-.06,0h0l-1.51.8c-2.63,1.39-6.5,3.44-10.72,5.57C48.45,97,47.87,99,47.35,101c-9.7,36.83-1.19,70,19.36,75.61l15.75,4.51C61.92,175.52,53.42,141.9,63.12,105.08Z"></path>
      <path class="cls-1" d="M144.15,95.94v-.83a7.92,7.92,0,0,0-.05-.85c0-.14,0-.27,0-.41v-.31c0-2.3-.22-4.63-.45-6.86l0-.56c0-.11,0-.23,0-.34,0-.39,0-.77,0-1.15a71.22,71.22,0,0,0-3-13.74c-.12-.24-.25-.49-.38-.71l.16.06c-.36-1-.73-2-1.14-3-.75-.24-1.53-.45-2.32-.65a39.12,39.12,0,0,0-7.2-1c8.87,11.94,11.49,33.8,5.47,56.69C127,153.43,105.79,174.88,88,170c-17.61-4.77-24.85-33.37-16.5-65.1-8.14,30.95-1.08,58.84,16.09,63.5,17.4,4.71,38.07-16.21,46.09-46.64,6.05-23,3.14-45-6.16-56.34a61.31,61.31,0,0,0-11,.92,88.24,88.24,0,0,0-13.12,3.5C98.55,71.51,93.05,73.62,87.5,76c-1.52.65-3,1.33-4.53,2l-.19.08c-3.45,1.56-6.58,3-8.72,4.08a120.32,120.32,0,0,0-7.84,21.35c-9.69,36.83-1.2,70.45,19.35,76h0l1.07.31.17,0c20.44,4.3,44.26-20.69,53.61-56.18a112.28,112.28,0,0,0,3.76-27.2A4.21,4.21,0,0,0,144.15,95.94ZM76.39,144.37a1.25,1.25,0,0,1,.46-.46,2.24,2.24,0,0,0-.46-.35l.11-.58,5.55-31.33a1.11,1.11,0,0,1,.35-.81c.16-.15.16-.27,0-.35v-.23a.47.47,0,0,1,0-.46L87.49,81a1,1,0,0,1,.11-.58,6.19,6.19,0,0,1,1.85-.23h19.66a3.33,3.33,0,0,1,.93.11H111a2.29,2.29,0,0,1,.92.12h.24a3.06,3.06,0,0,1,.63.06,5.14,5.14,0,0,1,.64.17h.23a.59.59,0,0,1,.52,0,1.66,1.66,0,0,0,.64.12,8.19,8.19,0,0,1,1.15.34l1.39.35,1.62.69,1.27.7c.93.62,1.77,1.23,2.54,1.85a16,16,0,0,1,2.2,2.43,5.16,5.16,0,0,1,.81,1.27l.41.81c.11.23.24.5.4.81L127,91a4.1,4.1,0,0,1,.35,1,14.89,14.89,0,0,1,.69,2.6c.16.89.31,1.8.47,2.72a6.21,6.21,0,0,1,.11,1.1v1.1a2.4,2.4,0,0,1,.06.92,8.22,8.22,0,0,0-.06,1,6.82,6.82,0,0,1,.12,1v.12a.52.52,0,0,1-.18.4.33.33,0,0,0-.05.41c.15.15.19.29.11.4a.38.38,0,0,0,0,.41v.81l-.11.23v1a2.72,2.72,0,0,1-.24,1v1l-1.61,8.79v.23a1.91,1.91,0,0,0-.24.87,1.82,1.82,0,0,1-.23.86l-.11,1a2.69,2.69,0,0,0-.35.81v.47a1.11,1.11,0,0,1-.11.46.46.46,0,0,0-.12.35l-.12.34a2.69,2.69,0,0,0-.34,1,.81.81,0,0,0,.05.35c0,.08,0,.19-.17.35-.08,0-.12,0-.12.11a2.11,2.11,0,0,1-.17.87,2.29,2.29,0,0,0-.17.87,1.53,1.53,0,0,0-.35.81,6.7,6.7,0,0,0-.52,1.44,6.28,6.28,0,0,1-.52,1.45,13,13,0,0,1-.75,1.67,13.87,13.87,0,0,0-.75,1.68c-.23.39-.45.73-.64,1l-.63,1c-.16.23-.29.45-.41.64s-.25.4-.4.63a9.5,9.5,0,0,1-1.85,2.32,5.06,5.06,0,0,1-1,1.15,2.43,2.43,0,0,0-.64.64,2.12,2.12,0,0,1-.75.64q-.46.34-.87.69a7.55,7.55,0,0,1-1,.69l-1.16.7a1.23,1.23,0,0,1-.4.29,2.11,2.11,0,0,0-.41.17,7.31,7.31,0,0,1-.81.46.86.86,0,0,1-.34.12,1,1,0,0,0-.35.11,7.56,7.56,0,0,1-1.16.46c-.46.16-.85.28-1.15.35a9.09,9.09,0,0,0-1,.35c-.54.15-1,.27-1.45.35a9.3,9.3,0,0,0-1.33.34.76.76,0,0,1-.52.06.76.76,0,0,0-.52.06,3.24,3.24,0,0,1-.81.11,1.28,1.28,0,0,0-.58.12h-.46a2.85,2.85,0,0,0-.92.12H76.39c-.08,0-.14-.1-.18-.29A13.31,13.31,0,0,1,76.39,144.37Z"></path>
      <path class="cls-1" d="M90.38,135.24h9a9,9,0,0,1,1,0,1.42,1.42,0,0,0,.87-.17,3.81,3.81,0,0,0,1-.11,14.61,14.61,0,0,0,2-.47,18.62,18.62,0,0,0,1.74-.69,8.12,8.12,0,0,0,2.08-1.39l.93-.81c.23-.15.34-.27.34-.34a5.62,5.62,0,0,1,.64-.76,3.17,3.17,0,0,0,.63-.86,10.08,10.08,0,0,0,1.16-2,10.75,10.75,0,0,0,.58-1.1,9.14,9.14,0,0,1,.58-1.1.93.93,0,0,1,.23-.69,3.29,3.29,0,0,1,.23-.81l.11-.69a1.42,1.42,0,0,0,.24-.58A1.47,1.47,0,0,1,114,122a1.14,1.14,0,0,0,.11-.87l.12-.12c.15-.15.21-.26.17-.34s0-.19.06-.35a4,4,0,0,0,.12-.87,1.85,1.85,0,0,1,.23-.86l.11-.23,1.74-10.3.11-.34a.59.59,0,0,1,0-.52,1.66,1.66,0,0,0,.12-.64v-1.27l.11-.35a.77.77,0,0,1,.06-.63.53.53,0,0,0-.06-.64.76.76,0,0,0,.06-.52.77.77,0,0,1,.06-.52A1.94,1.94,0,0,1,117,102v-.63a2.49,2.49,0,0,0-.23-1.27l.12-.24a2.65,2.65,0,0,1-.29-.86,3.06,3.06,0,0,0-.29-.87,5.7,5.7,0,0,0-1.5-3l-.47-.57-.23-.24a3,3,0,0,1-.81-.57,2.69,2.69,0,0,0-.92-.58c-.39-.15-.79-.29-1.22-.41l-1.44-.4a2,2,0,0,0-.81-.12,3.12,3.12,0,0,0-1-.11h-.35A1,1,0,0,0,107,92h-1.5a.82.82,0,0,0-.58,0H97.89a1.55,1.55,0,0,0-.69.12l-.12.69-3.93,22-.34,1.74-1.74,10.17-1.38,7.86a1,1,0,0,0,0,.7Z"></path>
      <path class="cls-1" d="M54.13,45.64c.36,5.73,1,14.55,1.4,20.57,3.93-1.72,10.5-5,17-7.65a136.3,136.3,0,0,1,18.11-6,52.13,52.13,0,0,1,8.78-1.47,82.56,82.56,0,0,1,11.17-7,98.3,98.3,0,0,1,12.3-5.4,120.22,120.22,0,0,1,13.21-3.89c3.69-.86,7.59-1.63,10.3-2.14l-.18-.79c-.66-2.83-2-8.48-5.14-13s-8.19-8-16.15-11.17A126.16,126.16,0,0,0,98.48.44C90.85-.59,86.49.32,83,1.8a34.2,34.2,0,0,0-7.54,4.57l-1.34,1-.18,0a18.67,18.67,0,0,0-3.59,3.38c-1.62,2-3.11,4.8-4.82,6.37a8.72,8.72,0,0,1-4.62,2.09l-1,.17.46-.11a11.05,11.05,0,0,0,2.32-.78,7.82,7.82,0,0,0,2.8-2.28c.87-1.12,1.62-2.65,2.41-3.9A17.77,17.77,0,0,1,70.47,9.2c.45-.45.93-.89,1.41-1.33a27.49,27.49,0,0,0-9,3.37,21.45,21.45,0,0,0-8.48,9.91c-1.53,4-1.22,8.37-1,11.78S53.69,38.79,54.13,45.64Z"></path>
      <path class="cls-1" d="M146.32,70.34c-.1-.8-.78-1.44-1.9-2.09a14.94,14.94,0,0,0-2.48-1.12l-.16-.06c.14.23.26.47.38.72a8.05,8.05,0,0,1,.48,1.16c.5,1.57.92,3.13,1.29,4.69l.41-.3C145.94,72.13,146.42,71.15,146.32,70.34Z"></path>
      <path class="cls-1" d="M64.44,84.88l1.52-.8h0L66,84h0l0,0h.09c.38-.2,1-.55,3.15-1.72l.22-.12h0L71,81.35c.6-.32,1-.54,4-2l.66-.32c2.15-1,5.28-2.51,8.73-4.07l.19-.09c1.47-.67,3-1.34,4.53-2,5.54-2.38,11-4.5,15.89-6.13a90.15,90.15,0,0,1,13.12-3.5,61.34,61.34,0,0,1,11-.92h.51c.61,0,1.18,0,1.75.07a38.15,38.15,0,0,1,7.19,1c.79.19,1.57.41,2.33.64A28.21,28.21,0,0,1,145.52,66a5.64,5.64,0,0,1,2.72,2.57,3.53,3.53,0,0,1,.3,2.47,5.75,5.75,0,0,1-1.37,2.27A8.13,8.13,0,0,1,144.88,75l-.59.3a50,50,0,0,1,.82,5.41c0,.27,0,.56,0,.84s0,.76,0,1.15l0,.34c0,.19,0,.37,0,.56.23,2.24.44,4.56.45,6.87,0,.1,0,.2,0,.3s0,.28,0,.42.05.56.05.84,0,.56,0,.83,0,.34.05.5,0,.35,0,.52l0,.1c9.09-2.12,19.39-5.73,27-11,9.34-6.44,14.58-15.34,15.16-22.91s-3.51-13.79-8.49-18A33.47,33.47,0,0,0,163,34.7a45.65,45.65,0,0,0-6.95-.54h-.22c-.43,0-1.29,0-2.1.05s-1.54.06-4,.28a79.66,79.66,0,0,0-13,2.24,121.21,121.21,0,0,0-22.51,8.09A108.48,108.48,0,0,0,94,57.87c-5.79,4.64-10.59,9.24-16.11,13.2a120.51,120.51,0,0,1-15.48,9.14,47,47,0,0,1-5.56,2.52l-.61.21,1.2-.54a74.38,74.38,0,0,0,6.78-3.47,108.6,108.6,0,0,0,10.86-7.24c2.13-1.61,4.2-3.32,6.3-5.13-1.21.34-3.13.92-5.83,2-3.35,1.29-7.9,3.31-11.39,4.92s-6,2.82-7.2,3.42l-1.27.63s0,0,0-.69c0-.43.08-1.11.12-1.86l-4.27-.84a147.48,147.48,0,0,0-22.11-3C21,70.83,13.14,72,7.9,74.5S.06,80.76,0,84.72s2.4,8.12,6.19,11.11a26.7,26.7,0,0,0,14.14,5.24c5.27.45,10.72-.48,19-3.9,4.4-1.81,9.6-4.32,14.36-6.72C57.94,88.32,61.81,86.27,64.44,84.88Z"></path>
      <path class="cls-1" d="M299.23,103.06a9.94,9.94,0,0,0-3.48-3.77,12.22,12.22,0,0,0-5-2,8.36,8.36,0,0,0-1.1-.15c-.39,0-.79-.05-1.19-.05H263.63a.27.27,0,0,0-.3.3l-.2,1L259,122.16l-.1.49a1.46,1.46,0,0,0,0,.8.4.4,0,0,1-.1.3,6.85,6.85,0,0,0-.2.79,7.52,7.52,0,0,1-.3,1.2,2.76,2.76,0,0,0-.1,1.29v.1a4,4,0,0,0-.3,1.19l-1.69,9.35-.49,3.08a10.61,10.61,0,0,1-.3,1.49,3.69,3.69,0,0,0-.1,1.49.38.38,0,0,1-.1.3.4.4,0,0,0-.1.3l-.4,2.29c-.06.2,0,.3.2.3h9.55c.13,0,.19-.07.19-.2l.21-.8.89-5.17,1.69-9.35a1.54,1.54,0,0,1,.2-.69c.06-.07.3-.1.7-.1h10.14a5.4,5.4,0,0,1,3.48,1.39,2.12,2.12,0,0,1,.49.45l.4.45a3.41,3.41,0,0,1,1,1.88,7.67,7.67,0,0,1,.09,3.29l-1.38,7.55-.11.8v.3l.11.1a2.71,2.71,0,0,0,.79.1h8.75a.39.39,0,0,0,.4-.3l.1-.9,1.09-6.26c.13-.53.23-1,.3-1.49s.13-1,.2-1.5,0-1.09,0-1.69.05-1.19.05-1.79a13.28,13.28,0,0,0-1.79-5.66.21.21,0,0,0-.05-.15.18.18,0,0,1-.05-.15c.33-.33.63-.61.89-.85s.57-.51.9-.84a17.17,17.17,0,0,0,3.08-3.68,20.14,20.14,0,0,0,3-7,7.15,7.15,0,0,0,.4-1.64,13.23,13.23,0,0,0,.1-1.64,15,15,0,0,0-.1-3A19,19,0,0,0,299.23,103.06Zm-9,11.24c-.2.53-.4,1.08-.6,1.64a6,6,0,0,1-.89,1.64l-.75.9a3.06,3.06,0,0,1-.94.69,6.59,6.59,0,0,1-4,1.3h-8.95a5,5,0,0,0-1.19.1H269.6q-.21,0-.3-.3l.2-.9,1-5.57,1-5.66a.82.82,0,0,1,.1-.4,1,1,0,0,0,.1-.4c.06-.2.16-.3.29-.3h12a3.92,3.92,0,0,1,.59,0,.51.51,0,0,0,.5-.15h.2a1.91,1.91,0,0,0,1,.15,1.69,1.69,0,0,1,.9.15,4.52,4.52,0,0,1,2.19,1.19,3.47,3.47,0,0,1,1,1.89A9.11,9.11,0,0,1,290.28,114.3Z"></path>
      <path class="cls-1" d="M452.75,109.93c-.26-.6-.5-1.18-.7-1.74a14.91,14.91,0,0,0-.69-1.64,20,20,0,0,0-2.59-3.88,17.88,17.88,0,0,0-3.68-3.48,33.55,33.55,0,0,0-3.77-1.79,8.73,8.73,0,0,0-2.14-.55c-.77-.1-1.51-.21-2.24-.35a3.12,3.12,0,0,0-.94,0,2.61,2.61,0,0,1-.95,0c-.6,0-1.23,0-1.89.1s-1.32.17-2,.3a23.9,23.9,0,0,0-6.36,2.29,28.14,28.14,0,0,0-7.46,5.47c-.73.73-1.46,1.52-2.19,2.38s-1.16,1.48-1.69,2.24-1,1.54-1.49,2.34-1,1.82-1.44,2.68a23.85,23.85,0,0,0-1.14,2.69A29.59,29.59,0,0,0,408,122c-.07.59-.16,1.19-.25,1.79a11.31,11.31,0,0,0-.15,1.89,11.42,11.42,0,0,0-.05,1.93c0,.64.05,1.28.05,1.94a1.79,1.79,0,0,0,.05.5,2.34,2.34,0,0,1,0,.5,1.51,1.51,0,0,1,.05.64.84.84,0,0,0,.15.65,25.06,25.06,0,0,0,1,4.28,10.45,10.45,0,0,0,.8,1.94c.33.63.69,1.27,1.09,1.93a15,15,0,0,0,2.68,3.09,11.69,11.69,0,0,0,4.38,3,18.22,18.22,0,0,0,8.25,1.79h1.39q.9-.1,1.59-.15a8.69,8.69,0,0,0,1.5-.25,25.24,25.24,0,0,0,5.76-1.89l1.49-.74a10.47,10.47,0,0,0,1.4-.85,16,16,0,0,0,1.54-1.09c.49-.4,1-.76,1.44-1.1l.4-.39.69-.6a4.55,4.55,0,0,0,.9-1c0-.07.06-.17.2-.3a1.09,1.09,0,0,0,.59-.4,46.71,46.71,0,0,0,3.09-4q.3-.5.54-.84c.17-.23.35-.52.55-.85s.41-.81.64-1.24l.75-1.34a7,7,0,0,0,.3-.7l.6-1.39c.2-.46.39-.93.59-1.39s.25-.81.35-1.25.22-.84.35-1.24a7.39,7.39,0,0,0,.4-1.49c.06-.46.13-.93.2-1.39a16.61,16.61,0,0,0,.29-1.74,14.27,14.27,0,0,0,.1-1.74,43.82,43.82,0,0,0-.2-4.38A22.68,22.68,0,0,0,452.75,109.93Zm-6.08-2.7a3.25,3.25,0,0,0-.22,1.2,2.43,2.43,0,0,1-.15.67,16.21,16.21,0,0,1-1.22,1.94,1.69,1.69,0,0,1-1,.41c-.61.09-2.11,1.18-2,1.71a11.55,11.55,0,0,0,.9,2,6,6,0,0,1,.58,1.85,1.8,1.8,0,0,1-.59,1.24,1.48,1.48,0,0,0,.34,2.5c.2.11.42.18.62.29.63.37.91.81.32,1.47a4.23,4.23,0,0,0-.78,1.1,1.62,1.62,0,0,0-.1,1,1.79,1.79,0,0,1-1.34,2,1.3,1.3,0,0,0-.84.47c-.59.84-1.12,1.72-1.65,2.6-.1.15-.25.37-.21.51.29.93-.36,1.4-.9,2s-1,1.22-1.54,1.82a4.65,4.65,0,0,1-.93.84c-.94.63-1,.59-2-.52-.53.5-1,1.35-1.62,1.42s-1.23-.65-2-1.11c-.79.58-2.21,1-1.89,2.76,0,.29-.26.7-.51,1a18.63,18.63,0,0,1-1.51,1.39,13.6,13.6,0,0,1,0-1.7c.23-1.62-.35-2.25-2-2.2a1.39,1.39,0,0,1-.9-.56c-.5-.59-.86-1.3-1.41-1.85a1.21,1.21,0,0,0-1.12-.09c-1.17.53-2.29,1.17-3.42,1.77l-1.25.68.82-2.24c.08-.24.28-.57.19-.73-.65-1.14.19-1.86.68-2.69a6.36,6.36,0,0,0,.34-.78,18.51,18.51,0,0,1-1-1.57c-.56-1,.1-1.57.91-2,1.53-.9,1.55-1.6.23-2.79a1.75,1.75,0,0,1-.42-1.28,13.28,13.28,0,0,1,.46-2.13c0-.09.08-.23.14-.24,1.36-.19,1.28-1.71,2.19-2.34.44-.31.36-.75-.13-1.11s-.6-.79,0-1.29a31.15,31.15,0,0,0,2.5-2.38,1.58,1.58,0,0,0,.24-.71,5,5,0,0,1,0-.57c.22-.66.47-1.31.78-2.17a7.45,7.45,0,0,1,.91,1.48c.29.86.77,1.13,1.61.82a17.84,17.84,0,0,0,2.11-.76,3.54,3.54,0,0,1,2.77.29,2,2,0,0,0,2.39-.21,1.55,1.55,0,0,1,2.27.08c1.38,1.15,1.93,1,3,.11a18.27,18.27,0,0,1,2.05-1.47c.48-.29,1-.43,1.55-.68a3.41,3.41,0,0,0,1-.61c1.06-1.13,2.08-2.29,3.12-3.42.2-.21.45-.36.86-.7A7.12,7.12,0,0,1,446.67,107.23Z"></path>
      <path class="cls-1" d="M162.21,97.4c0-.13-.06-.2-.19-.2a1.09,1.09,0,0,0-.5-.1h-8.75a.4.4,0,0,0-.3.1h-.3l-.1.4-1.59,9.34c-.06.34,0,.57.1.7s.07.07,0,.2v.1c-.07,0-.16.06-.3.2l-6.86,38.68v.1a.39.39,0,0,0,.3.05c.07,0,.17,0,.3,0h3.13c1,0,2.07,0,3.13-.09a.92.92,0,0,1,.35.05.51.51,0,0,0,.35-.05h.1a.39.39,0,0,0,.3.05c.06,0,.16,0,.3,0H153a.84.84,0,0,1,.5-.09l.09-.6,6.17-34.7v-.9a.69.69,0,0,0,.2-.5l2.19-12.52Z"></path>
      <path class="cls-1" d="M209.64,97.1h-5.37a4.48,4.48,0,0,0-1.09.1,2.18,2.18,0,0,0-1.29,0h-.2a7.2,7.2,0,0,0-1.39-.1c-.2,0-.3.13-.3.4l-.1.2-1.2,6.86a1.28,1.28,0,0,0,0,.69l-.09.4a5,5,0,0,0-.3,1.39l-3.48,19.69-.2,1a.3.3,0,0,1-.1.2h-.1l-.4-.59a2.35,2.35,0,0,1-.3-.7c-.46-1-.91-2-1.34-3s-.88-2-1.34-3a7.32,7.32,0,0,1-.45-.84,3.9,3.9,0,0,0-.45-.75,16.14,16.14,0,0,0-.69-1.74c-.27-.56-.53-1.11-.8-1.64-.33-.73-.64-1.49-.94-2.28a24.82,24.82,0,0,0-1.05-2.39c-.39-.8-.78-1.59-1.14-2.39s-.74-1.55-1.14-2.28l-1.15-2.49c-.36-.8-.71-1.62-1-2.49a19.87,19.87,0,0,0-.9-1.93,15.87,15.87,0,0,1-.89-2,1,1,0,0,0-.7-.3h-9a.55.55,0,0,0-.6.5l-.1.89-4.18,23.67-.2.79a1.2,1.2,0,0,0,.1.5.4.4,0,0,1-.1.3c-.06.2-.16.49-.3.89l-.19,1.59a2.54,2.54,0,0,1-.15.9,2.48,2.48,0,0,0-.15.89l-2.69,14.72a2.16,2.16,0,0,0,0,.89l-.1.3a4.13,4.13,0,0,0-.34,1.34c0,.44-.09.88-.15,1.35-.07.2,0,.3.2.3h8.35a4,4,0,0,0,1.29-.1,6.2,6.2,0,0,0,.4-1.4l4.77-27.54.2-1,.2-.4c0-.07,0-.1.1-.1h.1c.06.07.1.12.1.15s0,.08.1.15a15.4,15.4,0,0,1,1,2.28,14.17,14.17,0,0,0,1,2.29c.33.66.64,1.31.94,1.94s.61,1.28.94,1.94a.68.68,0,0,0,.1.35.58.58,0,0,1,.1.35l.9,1.78c.33.74.66,1.48,1,2.24s.66,1.51,1,2.24a.92.92,0,0,1,.25.4.85.85,0,0,0,.25.4.81.81,0,0,0,.09.29.78.78,0,0,1,.1.35.56.56,0,0,0,.2.35c.4.79.78,1.61,1.15,2.44s.71,1.64,1,2.43c.6,1.33,1.17,2.6,1.74,3.83l1.74,3.83a5.45,5.45,0,0,1,.3.5h9.94q.19,0,.3-.3l.1-.9.4-2.09.39-2.08.3-2,.4-2,.3-2,.4-2.09.3-2,.39-2.09.4-2.08.3-2,2.88-16a1.93,1.93,0,0,1,.15-.75.85.85,0,0,0,0-.74l.1-.2a.69.69,0,0,0,.2-.5v-.5l1.49-8.45.2-.69A.35.35,0,0,0,209.64,97.1Z"></path>
      <path class="cls-1" d="M254.88,97.1h-8.75a1.31,1.31,0,0,0-.59.1h-.3a3.34,3.34,0,0,0-1-.1H218.89l-.1.6-1.59,8.94v.4c-.07.2,0,.33.1.4s.06.2,0,.4a1,1,0,0,0-.4.69v.2l-6.66,37.49v.4l-.1.2a1.48,1.48,0,0,0,.6.1H217a1.88,1.88,0,0,0,.7-.1h.1a.54.54,0,0,0,.49.15,2.54,2.54,0,0,1,.5-.05h27.15c.13,0,.19-.07.19-.2l.1-.4.3-1.49,1.29-7.26.1-.6H222l.1-.6,1-6.06.5-2.78a3.69,3.69,0,0,1,.2-.5h21.48a.88.88,0,0,0,.4-.1l.1-.3,1.59-9.15.1-.3c0-.13-.07-.19-.2-.19H225.45l.1-.6.7-4a7.51,7.51,0,0,1,.2-.84,1.58,1.58,0,0,0,0-.75,1.68,1.68,0,0,0,.29-.84,3.44,3.44,0,0,1,.1-.75l.3-1.79.1-.3a2.41,2.41,0,0,1,.7-.1h25.25v-.4l1.69-9.14Z"></path>
      <path class="cls-1" d="M404.13,97.2a1.18,1.18,0,0,1-.35,0,1.18,1.18,0,0,0-.35-.05h-5.27c-.53,0-1,0-1.54,0a6.06,6.06,0,0,0-1.64.15.23.23,0,0,1-.15,0,.21.21,0,0,0-.15-.05l-.4.2a1.69,1.69,0,0,0-.49.49c-.4.47-.81.93-1.24,1.4s-.85.93-1.25,1.39c-.66.66-1.26,1.31-1.79,1.94s-1.12,1.31-1.79,2l-1.64,1.84c-.56.63-1.18,1.27-1.84,1.93l-1.59,1.79c-.53.6-1.09,1.23-1.69,1.89l-.4.3c-.13-.26-.3-.59-.49-1-.4-.73-.78-1.41-1.15-2s-.74-1.31-1.14-2-.9-1.59-1.29-2.38-.83-1.63-1.3-2.49-.91-1.49-1.34-2.29l-1.24-2.29c-.07-.13-.17-.29-.3-.49a.59.59,0,0,0-.4-.2h-8.35a3.68,3.68,0,0,0-1.29.1,4.7,4.7,0,0,0-.3,1.29l-4.18,23.67-.2.79a1.2,1.2,0,0,0,.1.5.4.4,0,0,1-.1.3c-.06.2-.16.49-.29.89s-.14.8-.2,1.2a6.22,6.22,0,0,0-.1,1.09.21.21,0,0,1-.05.15.17.17,0,0,0-.05.15l-.2,1.19-2.49,14c-.06.53-.1.93-.1,1.19l-.1.3a4.42,4.42,0,0,0-.34,1.29c0,.4-.09.83-.15,1.3-.07.26,0,.4.3.4h9.34a.39.39,0,0,0,.4-.3l.1-1,5.27-29.73.1-.79.1-.3a.28.28,0,0,1,.1-.2.29.29,0,0,1,.2.1.8.8,0,0,1,.3.5c.59,1,1.17,2,1.74,3s1.11,2,1.64,3.08a7.31,7.31,0,0,1,.64,1.19,7.07,7.07,0,0,0,.65,1.2,1.75,1.75,0,0,0,.5.2h2.78a.74.74,0,0,1,.5,0,3.52,3.52,0,0,0,.49,0h4a2.2,2.2,0,0,0,.8-.9l.89-.89c.27-.27.53-.57.8-.9.86-.93,1.74-1.89,2.63-2.88s1.81-2,2.74-3a5.7,5.7,0,0,1,.49-.6h.1c.13,0,.2,0,.2.1l-.2.89-5.27,29.93-.1.9c-.06.26,0,.4.3.4h8.35a3.55,3.55,0,0,0,1.2-.1,5.22,5.22,0,0,0,.3-1.2l6.06-34.1.1-.7v-.6c-.13-.13-.1-.26.1-.39a3.28,3.28,0,0,0,.2-.7c.06-.53.1-.93.1-1.19s.13-.4.2-.6a2.09,2.09,0,0,0,.1-.6l.59-3.18a1.86,1.86,0,0,0,0-.89,2.73,2.73,0,0,0,.2-.5,1.52,1.52,0,0,0,.1-.5l.7-3.78.1-.39A.27.27,0,0,0,404.13,97.2Z"></path>
      <path class="cls-1" d="M505.65,97.1h-5.37a4.42,4.42,0,0,0-1.09.1,2.21,2.21,0,0,0-1.3,0h-.2a7.13,7.13,0,0,0-1.39-.1c-.2,0-.3.13-.3.4l-.1.2-1.19,6.86a1.11,1.11,0,0,0,0,.69l-.1.4a5.86,5.86,0,0,0-.3,1.39l-3.48,19.69-.2,1a.26.26,0,0,1-.1.2h-.1l-.39-.59a1.93,1.93,0,0,1-.3-.7c-.47-1-.91-2-1.35-3s-.87-2-1.34-3a7,7,0,0,1-.44-.84,3.9,3.9,0,0,0-.45-.75,16.21,16.21,0,0,0-.7-1.74c-.26-.56-.53-1.11-.79-1.64-.34-.73-.65-1.49-.95-2.28a24.71,24.71,0,0,0-1-2.39c-.4-.8-.78-1.59-1.15-2.39s-.74-1.55-1.14-2.28-.78-1.69-1.14-2.49-.71-1.62-1-2.49c-.27-.66-.57-1.3-.9-1.93a17.41,17.41,0,0,1-.9-2,1,1,0,0,0-.69-.3h-9.05a.56.56,0,0,0-.6.5l-.1.89-4.17,23.67-.2.79a1.06,1.06,0,0,0,.1.5.45.45,0,0,1-.1.3c-.07.2-.17.49-.3.89l-.2,1.59a2.54,2.54,0,0,1-.15.9,2.48,2.48,0,0,0-.15.89l-2.68,14.72a1.86,1.86,0,0,0,0,.89l-.1.3a4.16,4.16,0,0,0-.35,1.34c0,.44-.08.88-.15,1.35-.06.2,0,.3.2.3h8.35a4.08,4.08,0,0,0,1.3-.1,6.53,6.53,0,0,0,.39-1.4l4.78-27.54.2-1c.06-.14.13-.27.19-.4a.09.09,0,0,1,.1-.1h.1c.07.07.1.12.1.15s0,.08.1.15a14.46,14.46,0,0,1,1,2.28,13.3,13.3,0,0,0,1,2.29c.33.66.65,1.31.95,1.94s.61,1.28.94,1.94a.6.6,0,0,0,.1.35.65.65,0,0,1,.1.35l.9,1.78c.33.74.66,1.48,1,2.24s.66,1.51,1,2.24a.84.84,0,0,1,.25.4,1,1,0,0,0,.25.4.7.7,0,0,0,.1.29.94.94,0,0,1,.1.35.51.51,0,0,0,.2.35c.4.79.77,1.61,1.14,2.44s.71,1.64,1.05,2.43c.59,1.33,1.17,2.6,1.73,3.83s1.15,2.5,1.75,3.83a3.62,3.62,0,0,1,.29.5h10q.19,0,.3-.3l.1-.9.39-2.09.4-2.08.3-2,.4-2,.3-2,.39-2.09.3-2,.4-2.09.4-2.08.29-2,2.89-16a1.93,1.93,0,0,1,.15-.75.85.85,0,0,0-.05-.74l.1-.2a.69.69,0,0,0,.2-.5v-.5l1.49-8.45.2-.69A.35.35,0,0,0,505.65,97.1Z"></path>
      <path class="cls-1" d="M348.66,110.67c-.27-.59-.5-1.17-.7-1.74a13.93,13.93,0,0,0-.7-1.64,19.75,19.75,0,0,0-2.58-3.87A18.47,18.47,0,0,0,341,99.93a32.86,32.86,0,0,0-3.78-1.78,8.62,8.62,0,0,0-2.14-.55c-.76-.1-1.51-.22-2.23-.35a2.87,2.87,0,0,0-1,0,2.8,2.8,0,0,1-.94,0,17.89,17.89,0,0,0-1.89.1c-.67.07-1.33.17-2,.3a23.84,23.84,0,0,0-6.37,2.29,28.06,28.06,0,0,0-7.45,5.46c-.73.73-1.46,1.53-2.19,2.39s-1.16,1.48-1.69,2.24-1,1.54-1.49,2.33-1,1.83-1.44,2.69a22.75,22.75,0,0,0-1.15,2.68,31.92,31.92,0,0,0-1.39,5.08c-.06.59-.15,1.19-.25,1.78a11.49,11.49,0,0,0-.15,1.89,12.7,12.7,0,0,0-.05,1.94c0,.63.05,1.28.05,1.94a2.27,2.27,0,0,0,.05.5,1.79,1.79,0,0,1,.05.5,1.36,1.36,0,0,1,.05.64.93.93,0,0,0,.15.65,26.75,26.75,0,0,0,1,4.27,10.86,10.86,0,0,0,.8,1.94c.33.63.7,1.28,1.09,1.94a15,15,0,0,0,2.69,3.08,11.6,11.6,0,0,0,4.38,3,18.22,18.22,0,0,0,8.25,1.79h1.39q.9-.1,1.59-.15a9.86,9.86,0,0,0,1.49-.25,25.82,25.82,0,0,0,5.77-1.89l1.49-.74a11.53,11.53,0,0,0,1.39-.85,18.05,18.05,0,0,0,1.55-1.09c.49-.4,1-.76,1.44-1.1l.39-.4.7-.59a4.33,4.33,0,0,0,.89-1c0-.06.07-.16.2-.29a1.24,1.24,0,0,0,.6-.4,46.47,46.47,0,0,0,3.08-4c.2-.33.38-.61.55-.84s.35-.52.54-.85.42-.81.65-1.24.48-.88.75-1.35a6,6,0,0,0,.3-.69c.19-.46.4-.93.59-1.39l.6-1.4c.13-.39.25-.81.35-1.24a11.87,11.87,0,0,1,.35-1.24,6.72,6.72,0,0,0,.39-1.49c.07-.47.14-.93.2-1.39s.23-1.18.3-1.74a14.32,14.32,0,0,0,.1-1.75c0-1.52-.07-3-.2-4.37A23.83,23.83,0,0,0,348.66,110.67ZM342.57,108a3.41,3.41,0,0,0-.21,1.19,2.12,2.12,0,0,1-.16.68,16.14,16.14,0,0,1-1.21,1.94,1.62,1.62,0,0,1-1,.4c-.61.1-2.1,1.19-2,1.72a10.74,10.74,0,0,0,.9,2,6.46,6.46,0,0,1,.58,1.86,1.88,1.88,0,0,1-.59,1.24,1.47,1.47,0,0,0,.34,2.5c.2.11.42.18.61.29.64.37.91.81.33,1.47a4.67,4.67,0,0,0-.79,1.09,1.81,1.81,0,0,0-.1,1.05,1.75,1.75,0,0,1-1.34,1.95,1.35,1.35,0,0,0-.84.48c-.59.84-1.11,1.72-1.65,2.59-.1.16-.25.38-.2.52.28.93-.36,1.39-.9,2s-1,1.23-1.54,1.83a5.28,5.28,0,0,1-.93.84c-.94.63-1,.59-2-.53-.53.51-1,1.35-1.62,1.43s-1.23-.65-2-1.12c-.78.59-2.21,1-1.88,2.76.05.29-.27.71-.51,1-.4.45-.89.82-1.51,1.39a11.92,11.92,0,0,1,0-1.7c.23-1.62-.35-2.25-2-2.2a1.43,1.43,0,0,1-.9-.56c-.5-.59-.87-1.3-1.41-1.85A1.26,1.26,0,0,0,317,134c-1.16.54-2.28,1.17-3.41,1.78-.34.17-.67.36-1.26.68.34-.92.59-1.58.82-2.24.09-.25.29-.58.2-.73-.66-1.14.19-1.86.67-2.69a6.1,6.1,0,0,0,.35-.79c-.4-.6-.76-1-1-1.56-.55-1,.1-1.57.91-2,1.54-.9,1.56-1.61.24-2.79a1.75,1.75,0,0,1-.42-1.28,12.28,12.28,0,0,1,.46-2.13c0-.09.08-.23.14-.24,1.36-.19,1.28-1.71,2.18-2.34.45-.31.37-.75-.12-1.11s-.6-.79,0-1.29a29.55,29.55,0,0,0,2.49-2.39,1.43,1.43,0,0,0,.24-.7c.05-.19,0-.4.06-.58.22-.65.47-1.3.78-2.16a8.15,8.15,0,0,1,.9,1.47c.3.86.77,1.14,1.62.83a19.81,19.81,0,0,0,2.11-.76,3.43,3.43,0,0,1,2.76.29,1.94,1.94,0,0,0,2.39-.22,1.54,1.54,0,0,1,2.27.09c1.39,1.14,1.93,1,3,.1a17.66,17.66,0,0,1,2.05-1.46c.47-.29,1-.43,1.54-.68a3.49,3.49,0,0,0,1-.62c1.06-1.12,2.07-2.28,3.12-3.41a7.64,7.64,0,0,1,.86-.7A7.22,7.22,0,0,1,342.57,108Z"></path>
    </g>
  </g>
</svg>
