<?xml version="1.0" encoding="UTF-8"?>
<svg xmlns="http://www.w3.org/2000/svg" version="1.1" viewBox="0 0 566 110">
  <defs>
    <style>
      .cls-1 {
        fill: #176d4f;
      }

      .cls-2 {
        fill: #5b5b5b;
      }

      .cls-3 {
        fill: #db2e42;
      }
    </style>
  </defs>
  <!-- Generator: Adobe Illustrator 28.6.0, SVG Export Plug-In . SVG Version: 1.2.0 Build 709)  -->
  <g>
    <g id="Layer_1">
      <path class="cls-3" d="M14.2,2.4c3.9,0,7.3,1.4,10,4.1,2.8,2.8,4.2,6.2,4.1,10.2,0,4-1.7,7.5-4.3,10-2.7,2.6-6,4-9.9,4s-7.3-1.4-10-4.1C1.4,23.9,0,20.4,0,16.4s1.4-7.1,4.2-9.9c2.8-2.8,6.1-4.1,10-4.1h0Z"/>
      <path class="cls-3" d="M14.2,40.3c3.9,0,7.3,1.4,10,4.1,2.8,2.8,4.2,6.2,4.1,10.2s-1.7,7.5-4.3,10c-2.7,2.6-6,4-9.9,4s-7.3-1.4-10-4.1c-2.8-2.8-4.1-6.2-4.1-10.3s1.4-7.1,4.2-9.9,6.1-4.1,10-4.1h0Z"/>
      <path class="cls-3" d="M52,2.4c3.9,0,7.3,1.4,10,4.1,2.8,2.8,4.2,6.2,4.1,10.2,0,4-1.7,7.5-4.3,10-2.7,2.6-6,4-9.9,4s-7.3-1.4-10-4.1c-2.8-2.8-4.1-6.2-4.1-10.3s1.4-7.1,4.2-9.9c2.8-2.8,6.1-4.1,10-4.1h0Z"/>
      <path class="cls-3" d="M52,40.3c3.9,0,7.3,1.4,10,4.1,2.8,2.8,4.2,6.2,4.1,10.2,0,4-1.7,7.5-4.3,10-2.7,2.6-6,4-9.9,4s-7.3-1.4-10-4.1c-2.8-2.8-4.1-6.2-4.1-10.3s1.4-7.1,4.2-9.9c2.8-2.8,6.1-4.1,10-4.1h0Z"/>
      <path class="cls-1" d="M123.4,66.5l-.9-3.3c-4.2,3.5-10.1,5.2-17.8,5.2s-14.1-2-18.1-5.9c-4.2-4.2-6.3-10.1-6.3-17.7s2.1-13.6,6.3-17.7c4-3.9,10-5.9,18.1-5.9s6.4.4,9.3,1.1c2.9.7,5.1,1.7,6.4,2.8V.9C120.5.4,120.9,0,121.4,0h11.9C134.2,0,134.9.8,134.9,1.7v63.7c0,.9-.8,1.7-1.7,1.7h-9c-.4,0-.7-.3-.8-.6h0ZM107.8,33.5c-8.4,0-12.6,3.8-12.6,11.3s4.2,11.3,12.7,11.3,7.6-1,9.7-3.1c2-2,2.9-4.6,2.9-8,0-7.6-4.3-11.5-12.8-11.5h0Z"/>
      <path class="cls-1" d="M149.9.3c2.6,0,4.6.7,6.1,2.2,1.5,1.4,2.3,3.4,2.3,5.9s-.7,4.1-2,5.5c-1.6,1.7-3.8,2.5-6.4,2.5s-4.7-.7-6.2-2.2c-1.5-1.5-2.3-3.4-2.3-5.9s.8-4.3,2.3-5.7c1.5-1.4,3.6-2.2,6.1-2.2h0ZM142.7,65.4V24.2c0-.9.8-1.7,1.7-1.7h10.9c.9,0,1.7.8,1.7,1.7v41.2c0,.9-.8,1.7-1.7,1.7h-10.9c-.9,0-1.7-.8-1.7-1.7Z"/>
      <path class="cls-1" d="M164.9,65.4V24.2c0-.9.8-1.7,1.7-1.7h10.5c.4,0,.7.3.8.7l.6,2.3c4.3-2.9,9.7-4.3,16.2-4.3s14.5,2.5,17.7,7.6c1.3,2,2.1,4.7,2.4,8.1.2,2.2.3,4.6.3,7v21.6c0,.9-.8,1.7-1.7,1.7h-11.8c-.5,0-.9-.4-.9-.9v-21.2c0-3.6-.5-6.3-1.6-7.9-1.6-2.4-4.5-3.6-8.7-3.6s-7.7,1-9.3,3c-1.3,1.6-1.9,4.6-1.9,9.1v20.6c0,.5-.4.9-.9.9h-11.8c-.9,0-1.7-.8-1.7-1.7h0Z"/>
      <path class="cls-1" d="M271,49h-36.7c-.6,0-1,.5-.8,1.1.5,2.1,1.7,3.8,3.7,5,2.4,1.5,5.5,2.2,9.3,2.2s5.5-.3,7.3-1c1.6-.6,3-1.5,4-2.8.2-.2.5-.4.8-.3l11.1,1.9c1.1.2,1.8,1.4,1.3,2.5-1,2-2.3,3.7-3.9,5.1-4.6,3.8-11.2,5.7-19.7,5.7s-15.8-1.9-20.6-5.9c-5-4.1-7.6-10-7.6-17.8s2.5-13.6,7.4-17.7c2.4-2,5.2-3.5,8.3-4.4,3.2-.9,7-1.4,11.5-1.4,9,0,15.6,1.9,19.9,5.8,4.4,4,6.6,9.7,6.6,17.1s0,1.7,0,3.1c0,.9-.8,1.7-1.7,1.7ZM258,39.6c.6,0,1-.5.8-1.1-.4-1.6-.9-2.8-1.8-3.6-2-2-5.6-2.9-10.8-2.9s-11.5,2.2-12.5,6.6c-.1.5.3,1,.8,1h23.4Z"/>
      <path class="cls-1" d="M276.8,65.4V24.2c0-.9.8-1.7,1.7-1.7h11.2l.7,3c4-2.4,8.5-3.6,13.5-3.6s2.8.1,4.3.3c.8.1,1.5.9,1.5,1.7v10.9c0,.5-.5.9-1,.8-2.3-.4-4.5-.7-6.4-.7-4.4,0-7.5,1-9.2,3-1.3,1.5-1.9,4.5-1.9,8.9v18.3c0,.9-.8,1.7-1.7,1.7h-10.9c-.9,0-1.7-.8-1.7-1.7h0Z"/>
      <path class="cls-1" d="M320.6.3c2.6,0,4.6.7,6.1,2.2,1.5,1.4,2.3,3.4,2.3,5.9s-.7,4.1-2,5.5c-1.6,1.7-3.8,2.5-6.4,2.5s-4.7-.7-6.2-2.2c-1.5-1.5-2.3-3.4-2.3-5.9s.8-4.3,2.3-5.7c1.5-1.4,3.6-2.2,6.1-2.2h0ZM313.4,65.4V24.2c0-.9.8-1.7,1.7-1.7h10.9c.9,0,1.7.8,1.7,1.7v41.2c0,.9-.8,1.7-1.7,1.7h-10.9c-.9,0-1.7-.8-1.7-1.7Z"/>
      <path class="cls-1" d="M375.2,66.5l-.9-3.3c-4.5,3.5-10.4,5.2-17.9,5.2s-14-2-18-5.9c-4.2-4.2-6.3-10.1-6.3-17.7s2.1-13.6,6.3-17.7c4-3.9,9.9-5.9,18-5.9s12.4,1.4,16.6,4.3l.6-2.3c0-.4.4-.7.8-.7h10.5c.9,0,1.7.8,1.7,1.7v41.2c0,.9-.8,1.7-1.7,1.7h-9c-.4,0-.7-.3-.8-.6h0ZM359.6,33.5c-8.4,0-12.6,3.8-12.6,11.3s4.2,11.3,12.7,11.3,7.7-1,9.8-3.1c1.9-1.9,2.9-4.6,2.9-8,0-7.6-4.3-11.4-12.8-11.4h0Z"/>
      <path class="cls-3" d="M405.5,52.2c2.4,0,4.4.8,6,2.4,1.7,1.6,2.5,3.6,2.5,5.9s-1,4.3-2.6,5.8c-1.6,1.5-3.6,2.3-5.9,2.3s-4.4-.8-6-2.4c-1.6-1.6-2.5-3.6-2.5-6s.8-4.1,2.5-5.7c1.7-1.6,3.7-2.4,6-2.4h0Z"/>
      <path class="cls-3" d="M424.2,65.4V24.2c0-.9.8-1.7,1.7-1.7h10.5c.4,0,.7.3.8.7l.6,2.3c3.9-2.9,9-4.3,15.4-4.3s12.4,1.9,15.6,5.9c5.1-3.9,11.2-5.9,18.5-5.9s14.1,2.5,17.2,7.6c1.2,2,2,4.7,2.3,8.1.2,2.3.3,4.6.3,7v21.6c0,.9-.8,1.7-1.7,1.7h-11.8c-.5,0-.9-.4-.9-.9v-21.2c0-3.6-.5-6.2-1.4-7.9-1.4-2.4-4.1-3.6-8.1-3.6s-6.8.8-8.2,2.5c-1.5,1.7-2.2,4.8-2.2,9.5v20.7c0,.5-.4.9-.9.9h-12.7c-.5,0-.9-.4-.9-.9v-20.6c0-2.4-.1-4.2-.3-5.3-.2-1.1-.6-2.2-1.1-3.2-1.4-2.4-4.1-3.6-8.1-3.6s-7.1,1-8.6,3c-1.2,1.6-1.8,4.6-1.8,9.1v20.6c0,.5-.4.9-.9.9h-11.8c-.9,0-1.7-.8-1.7-1.7h0Z"/>
      <path class="cls-3" d="M528.6,43.3l-16.2-19.4c-.5-.6,0-1.4.7-1.4h14.9c.5,0,1,.2,1.3.6l9.4,11.1,9.8-11.2c.3-.4.8-.6,1.3-.6h12.5c.8,0,1.1.9.6,1.4l-16.8,18.3c-.3.3-.3.8,0,1.1l18.5,22.4c.5.6,0,1.4-.7,1.4h-14.9c-.5,0-1-.2-1.3-.6l-11.6-13.9-12,14c-.3.4-.8.6-1.3.6h-12.6c-.7,0-1.1-.9-.6-1.4l19-21.3c.3-.3.3-.8,0-1.1Z"/>
      <path class="cls-2" d="M560.5,83.9c3.3,0,5.4,1.9,5.4,5.4v.7l-3.5.3v-.7c0-1.6-.6-2.4-1.9-2.4s-1.8.6-1.8,1.9v.5c0,1.3.7,2.4,3,4.6,3.2,3,4.3,4.9,4.3,7.6v1.2c0,3.5-2.2,5.3-5.5,5.3s-5.6-1.9-5.6-5.4v-1.6l3.5-.3v1.6c0,1.6.7,2.4,2,2.4s2-.6,2-2.3v-.7c0-1.5-.7-2.6-3-4.7-3.2-3-4.3-4.9-4.3-7.5v-.6c0-3.5,2-5.3,5.4-5.3Z"/>
      <path class="cls-2" d="M553.6,108.1h-3.7l-.8-5.4h-4l-.8,5.4h-3.6l4.1-23.8h4.6l4.1,23.8ZM547.1,89.4l-1.5,10h3l-1.5-10h-.1Z"/>
      <path class="cls-2" d="M541,87.7h-3.8v20.4h-3.6v-20.4h-3.8v-3.4h11.3v3.4Z"/>
      <path class="cls-2" d="M527.4,108.1h-3.6v-23.8h3.6v23.8Z"/>
      <path class="cls-2" d="M516,83.9c3.3,0,5.4,1.9,5.4,5.4v.7l-3.5.3v-.7c0-1.6-.6-2.4-1.9-2.4s-1.8.6-1.8,1.9v.5c0,1.3.7,2.4,3,4.6,3.2,3,4.3,4.9,4.3,7.6v1.2c0,3.5-2.2,5.3-5.5,5.3s-5.6-1.9-5.6-5.4v-1.6l3.5-.3v1.6c0,1.6.7,2.4,2,2.4s2-.6,2-2.3v-.7c0-1.5-.7-2.6-3-4.7-3.2-3-4.3-4.9-4.3-7.5v-.6c0-3.5,2-5.3,5.4-5.3Z"/>
      <path class="cls-2" d="M508.7,87.6h-6.5v6.7h5.3v3.3h-5.3v7.1h6.5v3.3h-10.1v-23.8h10.1v3.3Z"/>
      <path class="cls-2" d="M489.9,83.9c3.5,0,5.6,2.1,5.6,5.7v2.1l-3.5.2v-1.9c0-1.9-.7-2.8-2-2.8s-2,.8-2,2.4v13c0,1.6.7,2.4,2,2.4s2-.8,2-2.8v-2.7l3.5.2v2.9c0,3.6-2.1,5.7-5.6,5.7s-5.5-2.1-5.5-5.7v-13.1c0-3.6,2-5.7,5.5-5.7Z"/>
      <path class="cls-2" d="M481.7,87.6h-6.5v6.7h5.3v3.3h-5.3v7.1h6.5v3.3h-10.1v-23.8h10.1v3.3Z"/>
      <path class="cls-2" d="M467.7,108.1h-3.5l-4.7-15.8h0v15.8h-3.4v-23.8h4l4.2,14.2h0v-14.2h3.4v23.8Z"/>
      <path class="cls-2" d="M446.5,87.6h-6.5v6.7h5.3v3.3h-5.3v7.1h6.5v3.3h-10.1v-23.8h10.1v3.3Z"/>
      <path class="cls-2" d="M432.7,84.3v18.5c0,3.7-2.1,5.7-5.6,5.7s-5.5-1.9-5.5-5.7v-18.5h3.5v18.4c0,1.7.8,2.4,2,2.4s2-.6,2-2.4v-18.4h3.6Z"/>
      <path class="cls-2" d="M412.5,83.9c3.6,0,5.8,2.3,5.8,6v12.4c0,1.5-.3,2.7-1,3.7.4.4,1.1.6,1.8.6l-.3,3.3c-1.8,0-3.1-.6-4-2-.7.2-1.5.4-2.3.4-3.6,0-5.8-2.3-5.8-6v-12.4c0-3.7,2.2-6,5.8-6ZM412.5,87.3c-1.4,0-2.2,1-2.2,2.7v12.4c0,1.8.8,2.7,2.2,2.7s2.2-1,2.2-2.7v-12.4c0-1.8-.8-2.7-2.2-2.7Z"/>
      <path class="cls-2" d="M391.2,83.9c3.6,0,5.8,2.3,5.8,6v12.4c0,3.7-2.2,6-5.8,6s-5.8-2.3-5.8-6v-12.4c0-3.7,2.2-6,5.8-6ZM391.2,87.3c-1.4,0-2.2,1-2.2,2.7v12.4c0,1.8.8,2.7,2.2,2.7s2.2-1,2.2-2.7v-12.4c0-1.8-.8-2.7-2.2-2.7Z"/>
      <path class="cls-2" d="M379.4,108.1l-2.9-10.1h-1.7v10.1h-3.6v-23.8h5.2c3.9,0,6,2.1,6,6v1.7c0,2.5-.9,4.3-2.5,5.2l3.3,10.8h-3.8ZM374.9,87.6v7.1h1.5c1.7,0,2.5-.9,2.5-2.9v-1.2c0-2-.8-2.9-2.5-2.9h-1.5Z"/>
      <path class="cls-2" d="M368.6,87.6h-6.5v6.7h5.3v3.3h-5.3v7.1h6.5v3.3h-10.1v-23.8h10.1v3.3Z"/>
      <path class="cls-2" d="M354.6,108.1h-3.6v-23.8h3.6v23.8Z"/>
      <path class="cls-2" d="M342.3,83.9c3.5,0,5.6,2.1,5.6,5.7v2.1l-3.5.2v-1.9c0-1.9-.7-2.8-2-2.8s-2,.8-2,2.4v13c0,1.6.7,2.4,2,2.4s2-.8,2-2.8v-2.7l3.5.2v2.9c0,3.6-2.1,5.7-5.6,5.7s-5.5-2.1-5.5-5.7v-13.1c0-3.6,2-5.7,5.5-5.7Z"/>
      <path class="cls-2" d="M333.3,108.1h-3.5l-4.7-15.8h0v15.8h-3.4v-23.8h4l4.2,14.2h0v-14.2h3.4v23.8Z"/>
      <path class="cls-2" d="M319,108.1h-3.7l-.8-5.4h-4l-.8,5.4h-3.6l4.1-23.8h4.6l4.1,23.8ZM312.5,89.4l-1.5,10h3l-1.5-10h-.1Z"/>
      <path class="cls-2" d="M303.6,108.1h-3.5l-4.7-15.8h0v15.8h-3.4v-23.8h4l4.2,14.2h0v-14.2h3.4v23.8Z"/>
      <path class="cls-2" d="M282,87.6h-6.4v6.7h5.1v3.3h-5.1v10.4h-3.6v-23.8h10v3.3ZM288,108.1h-3.6v-23.8h3.6v23.8Z"/>
      <path class="cls-2" d="M256.3,83.9c3.6,0,5.8,2.3,5.8,6v12.4c0,3.7-2.2,6-5.8,6s-5.8-2.3-5.8-6v-12.4c0-3.7,2.2-6,5.8-6ZM256.3,87.3c-1.4,0-2.2,1-2.2,2.7v12.4c0,1.8.8,2.7,2.2,2.7s2.2-1,2.2-2.7v-12.4c0-1.8-.8-2.7-2.2-2.7Z"/>
      <path class="cls-2" d="M244.8,97.3v10.7h-3.6v-10.8l-5-13h3.8l3,8.4h0l2.9-8.4h3.7l-4.9,13.1Z"/>
      <path class="cls-2" d="M229.6,83.9c3.6,0,5.8,2.3,5.8,6v12.4c0,3.7-2.2,6-5.8,6s-5.8-2.3-5.8-6v-12.4c0-3.7,2.2-6,5.8-6ZM229.6,87.3c-1.4,0-2.2,1-2.2,2.7v12.4c0,1.8.8,2.7,2.2,2.7s2.2-1,2.2-2.7v-12.4c0-1.8-.8-2.7-2.2-2.7Z"/>
      <path class="cls-2" d="M210.1,84.3h5.2c3.9,0,6,2.1,6,6v1.9c0,3.9-2.1,6-6,6h-1.6v9.9h-3.6v-23.8ZM213.7,87.6v7.3h1.5c1.7,0,2.5-.9,2.5-2.9v-1.4c0-2-.8-2.9-2.5-2.9h-1.5Z"/>
      <path class="cls-2" d="M207.5,108.1h-3.7l-.8-5.4h-4l-.8,5.4h-3.6l4.1-23.8h4.6l4.1,23.8ZM201,89.4l-1.5,10h3l-1.5-10h-.1Z"/>
      <path class="cls-2" d="M182.1,104.7h6v3.4h-9.6v-23.8h3.6v20.4Z"/>
      <path class="cls-2" d="M175.4,87.6h-6.5v6.7h5.3v3.3h-5.3v7.1h6.5v3.3h-10.1v-23.8h10.1v3.3Z"/>
    </g>
  </g>
</svg>