<svg xmlns="http://www.w3.org/2000/svg" width="206" height="47" viewBox="0 0 206 47">
  <defs>
    <style>
      .cls-1 {
        fill: #3c695a;
      }

      .cls-1, .cls-2 {
        fill-rule: evenodd;
      }
    </style>
  </defs>
  <path id="Фигура_1" data-name="Фигура 1" class="cls-1" d="M159,47V0h30V13.071H173V47H159Z"/>
  <path id="Фигура_1_копия" data-name="Фигура 1 копия" class="cls-2" d="M205,0V47H175V33.929h16V0h14Z"/>
  <path id="nice" class="cls-2" d="M92.29,17.184h4.784V8.144l6.165,9.04h4.8V0.72h-4.8V9.828L97.04,0.72H92.29V17.184Zm19.327,0h5.1V0.72h-5.1V17.184Zm18.626-4.357a3.281,3.281,0,0,1-4.543-.2,6.16,6.16,0,0,1-.831-3.752,5.9,5.9,0,0,1,.7-3.242A3.211,3.211,0,0,1,129.6,4.561a2.932,2.932,0,0,1,1.045.9,3.85,3.85,0,0,1,.494,1.1l4.492-1A7.391,7.391,0,0,0,132.983,1.7a9.89,9.89,0,0,0-11.039.936,8.545,8.545,0,0,0-2.173,6.279,9.3,9.3,0,0,0,1.235,5.028,6.95,6.95,0,0,0,2.937,2.744,10.581,10.581,0,0,0,4.385.78,8.973,8.973,0,0,0,3.645-.64,6.143,6.143,0,0,0,2.4-1.9,8.211,8.211,0,0,0,1.415-3.133l-4.458-1.348A5.072,5.072,0,0,1,130.243,12.826Zm8,4.357h13.881V13.455h-8.783V10.21h7.918V6.852h-7.918V4.235h8.536V0.72H138.245V17.184Z"/>
  <path id="credit" class="cls-1" d="M17.742,40.045a4.562,4.562,0,0,1-3.55,1.319,4.583,4.583,0,0,1-3.758-1.633Q9.1,38.1,9.1,33.694a9.5,9.5,0,0,1,1.12-5.215,4.806,4.806,0,0,1,4.264-2.238,4.829,4.829,0,0,1,2.222.506,4.714,4.714,0,0,1,1.68,1.445,6.2,6.2,0,0,1,.795,1.77l7.227-1.608a11.889,11.889,0,0,0-4.255-6.215q-2.864-2.023-7.868-2.023-6.4,0-9.891,3.53t-3.5,10.1a14.961,14.961,0,0,0,1.987,8.089,11.181,11.181,0,0,0,4.724,4.414,17.023,17.023,0,0,0,7.055,1.255,14.428,14.428,0,0,0,5.863-1.03,9.879,9.879,0,0,0,3.857-3.053,13.227,13.227,0,0,0,2.276-5.041l-7.172-2.168A8.156,8.156,0,0,1,17.742,40.045Zm21.219,7.01V36.3h0.723a3.436,3.436,0,0,1,2.005.614,6.17,6.17,0,0,1,1.481,2.042l4.375,8.094h9.248L52.829,39.38a10.412,10.412,0,0,0-1.146-1.645,8.266,8.266,0,0,0-1.309-1.392,8.164,8.164,0,0,0-2.13-.976,9.9,9.9,0,0,0,2.874-1.048,7.083,7.083,0,0,0,3.525-6.4,7.314,7.314,0,0,0-1.229-4.291,6.175,6.175,0,0,0-3.234-2.412,19.816,19.816,0,0,0-5.8-.65H30.741V47.054h8.22Zm0-21.138h3.6a4.92,4.92,0,0,1,3.053.687,2.683,2.683,0,0,1,.3,3.5,2.163,2.163,0,0,1-1.328.831,12.316,12.316,0,0,1-2.168.361H38.961V25.917ZM59.394,47.054h22.33v-6H67.6V35.835H80.333v-5.4H67.6V26.224h13.73V20.569H59.394V47.054Zm26.847,0H98.4a18.989,18.989,0,0,0,4.878-.723,8.752,8.752,0,0,0,3.685-2.1,10.9,10.9,0,0,0,2.683-3.92,17.819,17.819,0,0,0,.967-6.585,19.683,19.683,0,0,0-.651-5.131,11.579,11.579,0,0,0-2.1-4.246,9.442,9.442,0,0,0-3.658-2.8,14.563,14.563,0,0,0-5.808-.976H86.241V47.054ZM96.467,26.567q3.18,0,4.552,1.554t1.373,5.763a12.488,12.488,0,0,1-.614,4.6,3.853,3.853,0,0,1-1.7,1.987,8.436,8.436,0,0,1-3.65.569H94.425V26.567h2.041Zm18.771,20.487h8.2V20.569h-8.2V47.054ZM127.45,27.109H135.8V47.054h8.184V27.109h8.347v-6.54H127.45v6.54Z"/>
</svg>
