<?xml version="1.0" encoding="UTF-8"?>
<svg xmlns="http://www.w3.org/2000/svg" xmlns:xlink="http://www.w3.org/1999/xlink" version="1.1" id="a" x="0px" y="0px" viewBox="0 0 228.4 60" style="enable-background:new 0 0 228.4 60;" xml:space="preserve">
<style type="text/css">
	.st0{fill:url(#SVGID_1_);}
	.st1{fill:url(#SVGID_00000101813984327927505880000002817868555903784602_);}
	.st2{fill:url(#SVGID_00000119103607085036183310000013815297710415674266_);}
	.st3{fill:url(#SVGID_00000073686846475672944210000000224323560437786535_);}
	.st4{fill:url(#SVGID_00000152974119743872738710000006538784459054248333_);}
	.st5{fill:url(#SVGID_00000022525287549378696870000007730035523741336463_);}
	.st6{fill:url(#SVGID_00000159465674446502657050000001689278478154765496_);}
	.st7{fill:url(#SVGID_00000121269598030558342010000011076021319119593399_);}
	.st8{fill:url(#SVGID_00000038378886752454276670000004776105866485047478_);}
	.st9{fill:url(#SVGID_00000070824797988992096900000000547434199298289079_);}
	.st10{fill:url(#SVGID_00000146466953744323897310000008736121183206369168_);}
	.st11{fill:url(#SVGID_00000146466840878623952980000009743086426636698281_);}
	.st12{fill:url(#SVGID_00000183950360575958882470000010955731788436042646_);}
	.st13{fill:url(#SVGID_00000082357097883873612780000007324490040902852247_);}
	.st14{fill:url(#SVGID_00000133524907556659138740000015169916234508963735_);}
	.st15{fill:#FFFFFF;}
	.st16{fill:url(#SVGID_00000027598232007673375470000012625340204475826100_);}
	.st17{fill:url(#SVGID_00000050623781933790231640000013222463293016914829_);}
	.st18{fill:url(#SVGID_00000125571694348623285720000014458060785317781396_);}
</style>
<g id="b">
	
		<radialGradient id="SVGID_1_" cx="194.386" cy="1559.4199" r="141.31" gradientTransform="matrix(0.9942 0.1075 -7.308559e-02 0.6761 -3.7824 -1077.9272)" gradientUnits="userSpaceOnUse">
		<stop offset="0" style="stop-color:#1FA8DE"></stop>
		<stop offset="1" style="stop-color:#117CBE"></stop>
	</radialGradient>
	<path class="st0" d="M185.7,25.5c0-4.9,2.7-9.1,6.8-11.2V0H0v47.8h138.7L150.8,60V47.8h41.7v-11C188.5,34.7,185.7,30.4,185.7,25.5z   "></path>
	<g id="d">
		<g>
			
				<radialGradient id="SVGID_00000008107632695153277820000009651023363947699131_" cx="38.67" cy="2345.76" r="18.74" gradientTransform="matrix(1 0 0 1 0 -2318.5)" gradientUnits="userSpaceOnUse">
				<stop offset="0" style="stop-color:#F9EC31"></stop>
				<stop offset="1" style="stop-color:#FAAB31"></stop>
			</radialGradient>
			<path style="fill:url(#SVGID_00000008107632695153277820000009651023363947699131_);" d="M45.5,25.1L45.5,25.1v-0.7     c-0.1-0.6-0.2-1.2-0.4-1.7c-0.6-1.6-1.6-3-3-4l0.7-1c-2-1.5-4.4-2-6.7-1.6l-0.5-1.5c-2.9,0.7-5.1,2.6-6.3,5L28.1,19     c-1.5,2.9-1.5,6.2-0.2,8.9l-1,0.3c1.5,5,6.8,7.8,11.8,6.3c2.2-0.7,4-2.1,5.1-3.8c0.1-0.1,0.2-0.3,0.3-0.4c0.9-1.5,1.3-3.2,1.3-5     l0,0C45.5,25.2,45.5,25.2,45.5,25.1z M42.5,31.6c-2.6,1.7-6.1,1.9-9.1,0.4c-0.6-0.3-1.2-0.7-1.7-1.1c-1-1.1-1.8-2.4-2.1-3.9     c-0.2-0.9-0.3-1.8-0.2-2.6c0.5-3.5,3.5-6.2,7.1-6.2c4.1-0.1,7.4,3.2,7.5,7.2h1.4C45.3,27.7,44.3,30,42.5,31.6z"></path>
			
				<radialGradient id="SVGID_00000093877207048341651190000016133824611640137090_" cx="32.3103" cy="20.4" r="4.857" gradientUnits="userSpaceOnUse">
				<stop offset="0" style="stop-color:#F9EC31"></stop>
				<stop offset="1" style="stop-color:#FAAB31"></stop>
			</radialGradient>
			<path style="fill:url(#SVGID_00000093877207048341651190000016133824611640137090_);" d="M28.9,26.2c-0.3-2.2,0.2-4.6,1.6-6.5     s3.4-3,5.5-3.4l-0.4-1.7c-2.9,0.7-5.1,2.6-6.3,5l0.4,0.2C28.6,21.9,28.4,24.1,28.9,26.2z"></path>
			
				<radialGradient id="SVGID_00000030445154619067027210000004126290619950827952_" cx="28.72" cy="1194.83" r="16.14" gradientTransform="matrix(1 0 0 -1 0 62)" gradientUnits="userSpaceOnUse">
				<stop offset="0" style="stop-color:#F9EC31"></stop>
				<stop offset="1" style="stop-color:#FAAB31"></stop>
			</radialGradient>
			<path style="fill:url(#SVGID_00000030445154619067027210000004126290619950827952_);" d="M31.7,32.2c0.2,0.1,0.4,0.2,0.5,0.3     c1.2,0.7,2.6,1,3.9,1.1c-3.6-0.7-6.7-3.4-7.6-7.2c-0.6-2.3-0.3-4.7,0.8-6.7L28.1,19c-1.5,2.9-1.5,6.2-0.2,9l0.7-0.2     C29.1,29.6,30.3,31.1,31.7,32.2z"></path>
			
				<radialGradient id="SVGID_00000061436808126221983620000001043490689023202207_" cx="48.23" cy="1200.27" r="13.94" gradientTransform="matrix(1 0 0 -1 0 62)" gradientUnits="userSpaceOnUse">
				<stop offset="0" style="stop-color:#F9EC31"></stop>
				<stop offset="1" style="stop-color:#FAAB31"></stop>
			</radialGradient>
			<path style="fill:url(#SVGID_00000061436808126221983620000001043490689023202207_);" d="M29.6,22.8c0.3-0.7,0.6-1.4,1.1-2     c0.2-0.3,0.4-0.5,0.6-0.8c1.4-1.6,3.5-2.6,5.9-2.7c1.8,0,3.4,0.5,4.8,1.5l0.7-0.9c-2-1.5-4.4-2-6.7-1.6v0.1     C32.8,17.1,30.4,19.7,29.6,22.8z"></path>
			
				<radialGradient id="SVGID_00000155110592741475219950000015307318841196885146_" cx="40.61" cy="1217.3" r="17.16" gradientTransform="matrix(1 0 0 -1 0 62)" gradientUnits="userSpaceOnUse">
				<stop offset="0" style="stop-color:#F9EC31"></stop>
				<stop offset="1" style="stop-color:#FAAB31"></stop>
			</radialGradient>
			<path style="fill:url(#SVGID_00000155110592741475219950000015307318841196885146_);" d="M27,28.2l1.6-0.5c0,0,1.3,5.4,7.6,5.8     C36.2,33.6,29.6,35.9,27,28.2z"></path>
		</g>
		<g>
			
				<linearGradient id="SVGID_00000042001354613686598300000017127662176084095123_" gradientUnits="userSpaceOnUse" x1="16.47" y1="45.9" x2="16.47" y2="27.26" gradientTransform="matrix(1 0 0 -1 0 62)">
				<stop offset="0" style="stop-color:#FFFFFF"></stop>
				<stop offset="0.59" style="stop-color:#FCFCFC"></stop>
				<stop offset="1" style="stop-color:#D0D2D3"></stop>
			</linearGradient>
			<path style="fill:url(#SVGID_00000042001354613686598300000017127662176084095123_);" d="M16.7,34.7c-1.5,0-2.9-0.2-4.2-0.8     s-2.5-1.2-3.4-2.2l1.2-2.2c1,1,2.1,1.7,3.1,2.1c1,0.4,2.1,0.6,3.2,0.6c1.2,0,2.2-0.2,3-0.7c0.8-0.5,1.1-1.1,1.1-2     c0-0.6-0.2-1.1-0.6-1.4s-1-0.6-1.7-0.8c-0.7-0.2-1.6-0.5-2.6-0.7c-1.2-0.4-2.3-0.8-3.2-1.1c-0.9-0.4-1.5-0.9-2-1.5     s-0.7-1.4-0.7-2.4c0-1.1,0.3-2.1,0.9-2.9c0.6-0.8,1.4-1.4,2.5-1.8c1.1-0.4,2.3-0.6,3.6-0.6s2.6,0.2,3.7,0.6s2,1,2.8,1.9l-1.4,2.1     c-0.7-0.7-1.5-1.3-2.4-1.6c-0.8-0.4-1.8-0.5-2.9-0.5c-0.6,0-1.2,0.1-1.8,0.2c-0.6,0.1-1.1,0.4-1.5,0.8c-0.4,0.4-0.6,0.9-0.6,1.5     c0,0.5,0.2,1,0.5,1.3s0.8,0.6,1.4,0.8c0.6,0.2,1.3,0.5,2.2,0.7c1.4,0.4,2.5,0.8,3.6,1.2s1.8,0.9,2.3,1.5s0.8,1.5,0.8,2.6     c0,1.7-0.6,3.1-2,4C20.6,34.3,18.9,34.7,16.7,34.7L16.7,34.7z"></path>
			
				<linearGradient id="SVGID_00000163038264030350310710000007976424949467751576_" gradientUnits="userSpaceOnUse" x1="54.035" y1="52.94" x2="54.035" y2="27.26" gradientTransform="matrix(1 0 0 -1 0 62)">
				<stop offset="0" style="stop-color:#FFFFFF"></stop>
				<stop offset="0.59" style="stop-color:#FCFCFC"></stop>
				<stop offset="1" style="stop-color:#D0D2D3"></stop>
			</linearGradient>
			<path style="fill:url(#SVGID_00000163038264030350310710000007976424949467751576_);" d="M50.3,9.1h3.2v20.6c0,1,0.1,1.6,0.4,1.9     s0.6,0.4,1,0.4c0.5,0,1,0,1.4-0.2c0.4-0.1,0.8-0.2,1.1-0.3l0.5,2.6c-0.5,0.2-1.1,0.4-1.8,0.5c-0.7,0.1-1.3,0.2-1.9,0.2     c-1.2,0-2.2-0.3-2.8-1s-1-1.6-1-2.8L50.3,9.1L50.3,9.1z"></path>
			
				<linearGradient id="SVGID_00000078008938351235485820000015240053433548072871_" gradientUnits="userSpaceOnUse" x1="68.465" y1="45.9" x2="68.465" y2="27.27" gradientTransform="matrix(1 0 0 -1 0 62)">
				<stop offset="0" style="stop-color:#FFFFFF"></stop>
				<stop offset="0.59" style="stop-color:#FCFCFC"></stop>
				<stop offset="1" style="stop-color:#D0D2D3"></stop>
			</linearGradient>
			<path style="fill:url(#SVGID_00000078008938351235485820000015240053433548072871_);" d="M69.2,34.7c-1.4,0-2.6-0.2-3.8-0.7     c-1.1-0.5-2.1-1.2-2.9-2c-0.8-0.9-1.5-1.9-1.9-3s-0.7-2.3-0.7-3.6c0-1.7,0.4-3.2,1.2-4.6c0.8-1.4,1.8-2.5,3.2-3.4s3-1.3,4.8-1.3     s3.3,0.4,4.7,1.2c1.3,0.8,2.3,1.9,3,3.2l-3.1,0.9c-0.5-0.8-1.1-1.5-1.9-1.9c-0.8-0.5-1.7-0.7-2.7-0.7c-1.1,0-2.1,0.3-3,0.8     S64.5,21,64,22s-0.8,2.1-0.8,3.4s0.3,2.4,0.8,3.4c0.5,1,1.2,1.8,2.2,2.4s1.9,0.9,3,0.9c0.7,0,1.4-0.1,2.1-0.4s1.2-0.6,1.7-1     s0.8-0.9,1-1.4l3.1,0.9c-0.4,0.9-0.9,1.7-1.7,2.4c-0.8,0.7-1.6,1.2-2.7,1.6S70.5,34.8,69.2,34.7L69.2,34.7z"></path>
			
				<linearGradient id="SVGID_00000062877058889297541440000007881725412159210381_" gradientUnits="userSpaceOnUse" x1="86.24" y1="45.9" x2="86.24" y2="27.61" gradientTransform="matrix(1 0 0 -1 0 62)">
				<stop offset="0" style="stop-color:#FFFFFF"></stop>
				<stop offset="0.59" style="stop-color:#FCFCFC"></stop>
				<stop offset="1" style="stop-color:#D0D2D3"></stop>
			</linearGradient>
			<path style="fill:url(#SVGID_00000062877058889297541440000007881725412159210381_);" d="M91.1,19c-1.5,0-2.9,0.4-4,1.1     s-2,1.8-2.5,3.1v11.1h-3.2v-18h2.9v4.1c0.6-1.2,1.4-2.3,2.5-3s2.1-1.2,3.2-1.3h0.6c0.2,0,0.3,0,0.4,0L91.1,19L91.1,19z"></path>
			
				<linearGradient id="SVGID_00000155843238581402150340000011205323970242221993_" gradientUnits="userSpaceOnUse" x1="102.575" y1="45.89" x2="102.575" y2="27.26" gradientTransform="matrix(1 0 0 -1 0 62)">
				<stop offset="0" style="stop-color:#FFFFFF"></stop>
				<stop offset="0.59" style="stop-color:#FCFCFC"></stop>
				<stop offset="1" style="stop-color:#D0D2D3"></stop>
			</linearGradient>
			<path style="fill:url(#SVGID_00000155843238581402150340000011205323970242221993_);" d="M102.7,34.7c-1.4,0-2.6-0.2-3.8-0.7     c-1.1-0.5-2.1-1.2-2.9-2c-0.8-0.9-1.5-1.9-1.9-3s-0.7-2.3-0.7-3.6c0-1.7,0.4-3.2,1.2-4.6s1.9-2.5,3.3-3.4s3-1.3,4.9-1.3     s3.4,0.4,4.8,1.3c1.4,0.9,2.4,2,3.2,3.4c0.8,1.4,1.1,2.9,1.1,4.5c0,0.2,0,0.5,0,0.7c0,0.2,0,0.4-0.1,0.5H96.8     c0.1,1.2,0.4,2.2,1,3.1c0.6,0.9,1.3,1.6,2.2,2.1c0.9,0.5,1.9,0.7,2.9,0.7s2.1-0.3,3.1-0.8c1-0.5,1.6-1.3,2-2.1l2.7,0.7     c-0.4,0.9-1,1.7-1.8,2.4c-0.8,0.7-1.7,1.2-2.7,1.6C105.1,34.5,103.9,34.7,102.7,34.7L102.7,34.7z M96.7,24.3h12.1     c-0.1-1.1-0.4-2.1-1-3c-0.6-0.9-1.3-1.6-2.2-2c-0.9-0.5-1.9-0.7-2.9-0.7s-2,0.2-2.9,0.7s-1.6,1.2-2.2,2     C97.1,22.1,96.7,23.2,96.7,24.3L96.7,24.3z"></path>
			
				<linearGradient id="SVGID_00000162342099588753522670000015517268543717326979_" gradientUnits="userSpaceOnUse" x1="124.415" y1="52.94" x2="124.415" y2="27.28" gradientTransform="matrix(1 0 0 -1 0 62)">
				<stop offset="0" style="stop-color:#FFFFFF"></stop>
				<stop offset="0.59" style="stop-color:#FCFCFC"></stop>
				<stop offset="1" style="stop-color:#D0D2D3"></stop>
			</linearGradient>
			<path style="fill:url(#SVGID_00000162342099588753522670000015517268543717326979_);" d="M114.9,25.4c0-1.7,0.3-3.2,1.1-4.7     c0.7-1.4,1.7-2.5,2.9-3.4c1.2-0.9,2.7-1.3,4.2-1.3c1.5,0,2.8,0.4,3.9,1.1c1.2,0.8,2,1.7,2.7,2.7V9.1h3.2v21.7     c0,0.4,0.1,0.7,0.2,0.9c0.1,0.2,0.4,0.3,0.7,0.3v2.5c-0.6,0.1-1,0.1-1.4,0.1c-0.6,0-1.1-0.2-1.6-0.6c-0.5-0.4-0.7-0.9-0.7-1.4V31     c-0.7,1.2-1.7,2.1-2.9,2.7c-1.2,0.7-2.4,1-3.8,1s-2.4-0.2-3.4-0.7s-2-1.2-2.7-2c-0.8-0.9-1.4-1.9-1.8-3     C115.2,27.8,114.9,26.7,114.9,25.4L114.9,25.4z M129.8,28.1V23c-0.3-0.8-0.7-1.5-1.3-2.1c-0.6-0.6-1.3-1.1-2.1-1.5     c-0.8-0.4-1.5-0.5-2.3-0.5c-0.9,0-1.7,0.2-2.4,0.6s-1.3,0.9-1.8,1.5s-0.9,1.3-1.2,2.1c-0.3,0.8-0.4,1.6-0.4,2.5s0.2,1.7,0.4,2.5     c0.3,0.8,0.7,1.5,1.3,2.1s1.2,1.1,2,1.4c0.7,0.3,1.6,0.5,2.4,0.5c0.5,0,1.1-0.1,1.7-0.3c0.6-0.2,1.1-0.5,1.7-0.8s1-0.8,1.3-1.3     S129.6,28.6,129.8,28.1L129.8,28.1z"></path>
			
				<linearGradient id="SVGID_00000130624389028227071020000013269350928289851542_" gradientUnits="userSpaceOnUse" x1="140.545" y1="52.94" x2="140.545" y2="27.61" gradientTransform="matrix(1 0 0 -1 0 62)">
				<stop offset="0" style="stop-color:#FFFFFF"></stop>
				<stop offset="0.59" style="stop-color:#FCFCFC"></stop>
				<stop offset="1" style="stop-color:#D0D2D3"></stop>
			</linearGradient>
			<path style="fill:url(#SVGID_00000130624389028227071020000013269350928289851542_);" d="M138.9,12.9V9.1h3.2v3.9H138.9z      M138.9,34.4V16.3h3.2v18.1H138.9z"></path>
			
				<linearGradient id="SVGID_00000049900730259626761610000013005844866133278620_" gradientUnits="userSpaceOnUse" x1="151.95" y1="51.66" x2="151.95" y2="27.26" gradientTransform="matrix(1 0 0 -1 0 62)">
				<stop offset="0" style="stop-color:#FFFFFF"></stop>
				<stop offset="0.59" style="stop-color:#FCFCFC"></stop>
				<stop offset="1" style="stop-color:#D0D2D3"></stop>
			</linearGradient>
			<path style="fill:url(#SVGID_00000049900730259626761610000013005844866133278620_);" d="M157.5,33.6c-0.3,0.1-0.6,0.3-1.1,0.5     s-1,0.3-1.5,0.5s-1.2,0.2-1.8,0.2c-0.8,0-1.5-0.1-2.1-0.4s-1.1-0.7-1.5-1.3c-0.4-0.6-0.6-1.3-0.6-2.1V18.8h-2.4v-2.5h2.4v-6h3.2     v6h4.1v2.5H152v11.1c0.1,0.6,0.3,1.1,0.7,1.4s0.8,0.5,1.4,0.5c0.6,0,1.2-0.1,1.7-0.3s0.8-0.4,1-0.5L157.5,33.6L157.5,33.6z"></path>
			
				<linearGradient id="SVGID_00000114039952211659657340000001051662852003699110_" gradientUnits="userSpaceOnUse" x1="168.945" y1="45.89" x2="168.945" y2="27.26" gradientTransform="matrix(1 0 0 -1 0 62)">
				<stop offset="0" style="stop-color:#FFFFFF"></stop>
				<stop offset="0.59" style="stop-color:#FCFCFC"></stop>
				<stop offset="1" style="stop-color:#D0D2D3"></stop>
			</linearGradient>
			<path style="fill:url(#SVGID_00000114039952211659657340000001051662852003699110_);" d="M168.9,34.7c-1.4,0-2.6-0.2-3.7-0.7     s-2.1-1.2-2.9-2c-0.8-0.9-1.4-1.9-1.9-3s-0.7-2.3-0.7-3.5s0.2-2.5,0.7-3.6c0.4-1.1,1.1-2.1,1.9-3s1.8-1.5,2.9-2     c1.1-0.5,2.4-0.7,3.7-0.7s2.6,0.2,3.7,0.7s2.1,1.2,2.9,2s1.4,1.9,1.9,3s0.7,2.3,0.7,3.6s-0.2,2.4-0.7,3.5s-1.1,2.1-1.9,3     s-1.8,1.5-2.9,2S170.3,34.7,168.9,34.7L168.9,34.7z M163,25.5c0,1.2,0.3,2.4,0.8,3.3c0.5,1,1.2,1.8,2.1,2.3     c0.9,0.6,1.9,0.9,3,0.9s2.1-0.3,3-0.9s1.6-1.4,2.2-2.4c0.5-1,0.8-2.1,0.8-3.3s-0.3-2.4-0.8-3.4c-0.5-1-1.3-1.8-2.2-2.4     c-0.9-0.6-1.9-0.9-3-0.9s-2.1,0.3-3,0.9s-1.6,1.4-2.1,2.4S163,24.2,163,25.5z"></path>
		</g>
	</g>
	<g id="s">
		<path class="st15" d="M183.2,30.7c0.3,0.4,0.5,0.9,0.5,1.4c0,0.5-0.2,1-0.5,1.4s-0.8,0.6-1.5,0.6s-1.2-0.2-1.5-0.6    c-0.3-0.4-0.5-0.8-0.5-1.4c0-0.5,0.2-1,0.5-1.4s0.8-0.6,1.5-0.6S182.9,30.3,183.2,30.7z"></path>
		<g>
			
				<radialGradient id="SVGID_00000005984457200815097850000017869059226121952442_" cx="201.75" cy="36.185" r="9.0586" gradientTransform="matrix(1 0 0 -1 0 62)" gradientUnits="userSpaceOnUse">
				<stop offset="0" style="stop-color:#1FA8DE"></stop>
				<stop offset="1" style="stop-color:#117CBE"></stop>
			</radialGradient>
			<path style="fill:url(#SVGID_00000005984457200815097850000017869059226121952442_);" d="M212.4,33H210v-7.8     c0-1.5-0.2-2.5-0.7-3.2c-0.5-0.7-1.2-1-2.1-1s-1.8,0.3-2.6,1s-1.3,1.6-1.6,2.7V33h-2.4v-7.8c0-1.5-0.2-2.6-0.7-3.3s-1.2-1-2.1-1     s-1.8,0.3-2.6,1s-1.3,1.5-1.7,2.7v8.4h-2.4v-14h2.2v3c0.6-1,1.3-1.8,2.2-2.4c0.9-0.6,2-0.9,3.1-0.9s2.1,0.3,2.8,1     s1.1,1.5,1.3,2.5c0.6-1.1,1.4-2,2.3-2.5c0.9-0.6,1.9-0.9,3.1-0.9c0.8,0,1.5,0.1,2,0.4c0.6,0.3,1,0.7,1.3,1.2     c0.3,0.5,0.6,1.1,0.7,1.9c0.1,0.7,0.2,1.5,0.2,2.3L212.4,33L212.4,33z"></path>
			
				<radialGradient id="SVGID_00000001637103817609782620000012544496587110296735_" cx="221.79" cy="36.075" r="6.8155" gradientTransform="matrix(1 0 0 -1 0 62)" gradientUnits="userSpaceOnUse">
				<stop offset="0" style="stop-color:#1FA8DE"></stop>
				<stop offset="1" style="stop-color:#117CBE"></stop>
			</radialGradient>
			<path style="fill:url(#SVGID_00000001637103817609782620000012544496587110296735_);" d="M217.8,18.9l3.7,5.2l0.2,0.4l0.2-0.4     l3.7-5.2h2.6l-5.2,7l5.2,7h-2.6l-3.7-5.1l-0.2-0.4l-0.2,0.4l-3.7,5.1h-2.6l5.2-7l-5.2-7C215.2,18.9,217.8,18.9,217.8,18.9z"></path>
		</g>
	</g>
</g>
<radialGradient id="SVGID_00000183244702943883644900000006072516392582725257_" cx="33.3753" cy="-1090.0504" r="13.5593" gradientTransform="matrix(1 0 0 -1 0 -1076)" gradientUnits="userSpaceOnUse">
	<stop offset="0" style="stop-color:#F9EC31"></stop>
	<stop offset="1" style="stop-color:#FAAB31"></stop>
</radialGradient>
<path style="fill:url(#SVGID_00000183244702943883644900000006072516392582725257_);" d="M28.9,26.2c-0.3-2.2,0.2-4.6,1.6-6.5  s3.4-3,5.5-3.4l-0.4-1.7c-2.9,0.7-5.1,2.6-6.3,5l0.4,0.2C28.6,21.9,28.4,24.1,28.9,26.2z"></path>
</svg>
