<svg width="137" height="24" viewBox="0 0 137 24" fill="none" xmlns="http://www.w3.org/2000/svg">
<path d="M29.5995 1H7.15804C6.30327 1 5.61035 1.68586 5.61035 2.53191V17.0851C5.61035 17.9312 6.30327 18.617 7.15804 18.617H29.5995C30.4542 18.617 31.1471 17.9312 31.1471 17.0851V2.53191C31.1471 1.68586 30.4542 1 29.5995 1Z" stroke="white" stroke-width="1.54768"/>
<path d="M24.7629 3.68085H2.32153C1.03938 3.68085 0 4.70964 0 5.97872V20.5319C0 21.801 1.03938 22.8298 2.32153 22.8298H24.7629C26.0451 22.8298 27.0845 21.801 27.0845 20.5319V5.97872C27.0845 4.70964 26.0451 3.68085 24.7629 3.68085Z" fill="white"/>
<path d="M12.3622 19.5095V18.3747C10.5507 18.2585 9.16986 17.2741 9.11517 15.6198L9.12201 15.613L10.7079 15.6061L10.7148 15.6198C10.831 16.3649 11.3369 16.8981 12.3622 17.0075V14.2458L12.0136 14.1638C10.2568 13.7604 9.29974 12.9675 9.29974 11.5456V11.5319C9.29974 9.96649 10.5781 8.94794 12.3622 8.82489V7.67645H13.162V8.82489C14.9394 8.96844 16.1699 10.0349 16.2314 11.6003V11.6071L14.6454 11.614L14.6386 11.6003C14.5497 10.8005 13.9824 10.3151 13.162 10.1989V12.8513L13.5449 12.9401C15.3701 13.364 16.3544 14.1022 16.3544 15.5788V15.5925C16.3544 17.2741 14.9804 18.2448 13.162 18.3747V19.5095H12.3622ZM10.9472 11.4225C10.9472 11.9968 11.3505 12.4001 12.3622 12.6667V10.1989C11.4326 10.3083 10.9472 10.821 10.9472 11.4089V11.4225ZM14.707 15.7429C14.707 15.0934 14.331 14.7243 13.162 14.4304V17.0075C14.2285 16.9186 14.707 16.4333 14.707 15.7565V15.7429Z" fill="#3C3C3C"/>
<path d="M40.0846 10.5547C40.0846 10.1016 40.2461 9.71354 40.569 9.39062C40.8919 9.06771 41.2826 8.90625 41.7409 8.90625H44.2096C44.8763 8.90625 45.4232 9.11458 45.8503 9.53125C46.2669 9.11458 46.8138 8.90625 47.4909 8.90625H48.7096C49.2461 8.90625 49.7357 9.03906 50.1784 9.30469C50.6211 9.5651 50.9727 9.91667 51.2331 10.3594C51.4987 10.7969 51.6315 11.2839 51.6315 11.8203V17H49.9909V11.8438C49.9909 11.4844 49.8659 11.1797 49.6159 10.9297C49.3659 10.6745 49.0638 10.5469 48.7096 10.5469H47.4909C47.2617 10.5469 47.0664 10.6198 46.905 10.7656C46.7435 10.9062 46.6628 11.0781 46.6628 11.2812V17H45.0143V11.2812C45.0143 11.0781 44.9362 10.9062 44.78 10.7656C44.6237 10.6198 44.4336 10.5469 44.2096 10.5469H41.7331V17H40.0846V10.5547ZM55.2784 12.9453L51.9815 8.90625H54.0831L56.3565 11.7109L58.63 8.90625H60.7237L57.4346 12.9453L60.7237 17H58.6378L56.3565 14.1953L54.0753 17H51.9815L55.2784 12.9453ZM61.0425 16.0625C61.0425 15.7812 61.1414 15.5417 61.3393 15.3438C61.5372 15.1458 61.7768 15.0469 62.0581 15.0469C62.3445 15.0469 62.5841 15.1458 62.7768 15.3438C62.9747 15.5365 63.0737 15.776 63.0737 16.0625C63.0737 16.349 62.9747 16.5911 62.7768 16.7891C62.5841 16.9818 62.3445 17.0781 62.0581 17.0781C61.7768 17.0781 61.5372 16.9792 61.3393 16.7812C61.1414 16.5833 61.0425 16.3438 61.0425 16.0625ZM63.9315 11.8281C63.9315 11.2917 64.0669 10.8021 64.3378 10.3594C64.6086 9.91667 64.9706 9.5651 65.4237 9.30469C65.8768 9.03906 66.3794 8.90625 66.9315 8.90625H71.4862V10.5547H66.9315C66.5617 10.5547 66.244 10.6823 65.9784 10.9375C65.7128 11.1875 65.58 11.4922 65.58 11.8516V14.0469C65.58 14.4062 65.7102 14.7135 65.9706 14.9688C66.2362 15.224 66.5565 15.3516 66.9315 15.3516H71.4862V17H66.9315C66.3794 17 65.8768 16.8672 65.4237 16.6016C64.9706 16.3359 64.6086 15.9818 64.3378 15.5391C64.0669 15.0911 63.9315 14.599 63.9315 14.0625V11.8281ZM72.3909 11.1719C72.3909 10.7552 72.4951 10.375 72.7034 10.0312C72.9169 9.6875 73.1982 9.41406 73.5471 9.21094C73.9013 9.00781 74.2919 8.90625 74.719 8.90625H76.5237V10.5469H74.719C74.5315 10.5469 74.3701 10.612 74.2346 10.7422C74.1044 10.8672 74.0393 11.0208 74.0393 11.2031V17H72.3909V11.1719ZM77.1159 10.5781C77.1159 10.1146 77.2852 9.72135 77.6237 9.39844C77.9622 9.07031 78.3685 8.90625 78.8425 8.90625H82.2175C82.6497 8.90625 83.0404 9.01302 83.3893 9.22656C83.7435 9.4349 84.0247 9.71875 84.2331 10.0781C84.4466 10.4323 84.5534 10.8255 84.5534 11.2578V11.4844C84.5534 11.9115 84.4466 12.3021 84.2331 12.6562C84.0247 13.0052 83.7435 13.2865 83.3893 13.5C83.0404 13.7083 82.6497 13.8125 82.2175 13.8125H79.7018V12.1719H82.2331C82.4206 12.1719 82.5794 12.1042 82.7096 11.9688C82.8451 11.8333 82.9128 11.6693 82.9128 11.4766V11.2578C82.9128 11.0599 82.8451 10.8932 82.7096 10.7578C82.5794 10.6224 82.4206 10.5547 82.2331 10.5547H78.7643V14.7109C78.7643 14.888 78.8242 15.0391 78.944 15.1641C79.0638 15.2891 79.2096 15.3516 79.3815 15.3516H83.9831V17H79.3815C78.9648 17 78.5846 16.8984 78.2409 16.6953C77.8971 16.487 77.6237 16.2109 77.4206 15.8672C77.2175 15.5182 77.1159 15.1354 77.1159 14.7188V10.5781ZM85.294 11.8281C85.294 11.2917 85.4242 10.8021 85.6846 10.3594C85.9503 9.91667 86.3044 9.5651 86.7471 9.30469C87.1898 9.03906 87.6794 8.90625 88.2159 8.90625H90.1456V10.5547H88.2159C87.8669 10.5547 87.5675 10.6823 87.3175 10.9375C87.0675 11.1875 86.9425 11.4896 86.9425 11.8438V14.0781C86.9425 14.4271 87.0675 14.7266 87.3175 14.9766C87.5675 15.2266 87.8669 15.3516 88.2159 15.3516H91.0831V5.89062H92.7315V15.3516C92.7315 15.8047 92.5701 16.1927 92.2471 16.5156C91.9242 16.8385 91.5362 17 91.0831 17H88.2159C87.6794 17 87.1898 16.8698 86.7471 16.6094C86.3044 16.3438 85.9503 15.9922 85.6846 15.5547C85.4242 15.112 85.294 14.625 85.294 14.0938V11.8281ZM93.519 6.70312C93.519 6.42188 93.618 6.18229 93.8159 5.98438C94.0138 5.78646 94.2534 5.6875 94.5346 5.6875C94.8159 5.6875 95.0555 5.78646 95.2534 5.98438C95.4513 6.18229 95.5503 6.42188 95.5503 6.70312C95.5503 6.98438 95.4513 7.22396 95.2534 7.42188C95.0555 7.61979 94.8159 7.71875 94.5346 7.71875C94.2534 7.71875 94.0138 7.61979 93.8159 7.42188C93.618 7.22396 93.519 6.98438 93.519 6.70312ZM93.7065 8.90625H95.3628V17H93.7065V8.90625ZM95.9471 8.90625H97.0018V5.89062H98.6503V8.90625H101.142V10.5547H98.6503V14.7031C98.6503 14.8802 98.718 15.0339 98.8534 15.1641C98.994 15.2891 99.1607 15.3516 99.3534 15.3516H101.142V17H99.33C98.9029 17 98.5122 16.8984 98.1581 16.6953C97.8091 16.487 97.5279 16.2109 97.3143 15.8672C97.106 15.5182 97.0018 15.1328 97.0018 14.7109V10.5547H95.9471V8.90625ZM103.016 8.90625L105.117 14.5156L107.266 8.90625H109.086L104.789 20.0469H102.985L104.242 16.7344L101.266 8.90625H103.016Z" fill="white"/>
<path d="M111.046 16.0625C111.046 15.7812 111.145 15.5417 111.342 15.3438C111.54 15.1458 111.78 15.0469 112.061 15.0469C112.348 15.0469 112.587 15.1458 112.78 15.3438C112.978 15.5365 113.077 15.776 113.077 16.0625C113.077 16.349 112.978 16.5911 112.78 16.7891C112.587 16.9818 112.348 17.0781 112.061 17.0781C111.78 17.0781 111.54 16.9792 111.342 16.7812C111.145 16.5833 111.046 16.3438 111.046 16.0625ZM113.935 10.5547C113.935 10.1016 114.096 9.71354 114.419 9.39062C114.742 9.06771 115.13 8.90625 115.583 8.90625H118.45C118.987 8.90625 119.476 9.03906 119.919 9.30469C120.362 9.5651 120.713 9.91406 120.974 10.3516C121.239 10.7891 121.372 11.276 121.372 11.8125V14.0781C121.372 14.6146 121.239 15.1042 120.974 15.5469C120.713 15.9896 120.362 16.3438 119.919 16.6094C119.476 16.8698 118.987 17 118.45 17H116.521V15.3516H118.45C118.804 15.3516 119.104 15.2266 119.349 14.9766C119.599 14.7214 119.724 14.4167 119.724 14.0625V11.8281C119.724 11.474 119.599 11.1745 119.349 10.9297C119.104 10.6797 118.804 10.5547 118.45 10.5547H115.583V20.0156H113.935V10.5547ZM122.347 11.1719C122.347 10.7552 122.451 10.375 122.66 10.0312C122.873 9.6875 123.154 9.41406 123.503 9.21094C123.858 9.00781 124.248 8.90625 124.675 8.90625H126.48V10.5469H124.675C124.488 10.5469 124.326 10.612 124.191 10.7422C124.061 10.8672 123.996 11.0208 123.996 11.2031V17H122.347V11.1719ZM126.838 11.8281C126.838 11.2917 126.968 10.8021 127.228 10.3594C127.494 9.91667 127.848 9.5651 128.291 9.30469C128.734 9.03906 129.223 8.90625 129.76 8.90625H131.525C132.062 8.90625 132.551 9.03906 132.994 9.30469C133.437 9.5651 133.788 9.91667 134.049 10.3594C134.314 10.8021 134.447 11.2917 134.447 11.8281V14.0781C134.447 14.6146 134.314 15.1042 134.049 15.5469C133.788 15.9896 133.437 16.3438 132.994 16.6094C132.551 16.8698 132.062 17 131.525 17H129.76C129.223 17 128.734 16.8698 128.291 16.6094C127.848 16.3438 127.494 15.9896 127.228 15.5469C126.968 15.1042 126.838 14.6146 126.838 14.0781V11.8281ZM128.486 14.0625C128.486 14.4167 128.611 14.7214 128.861 14.9766C129.111 15.2266 129.411 15.3516 129.76 15.3516H131.525C131.879 15.3516 132.179 15.2266 132.424 14.9766C132.674 14.7214 132.799 14.4167 132.799 14.0625V11.8438C132.799 11.4896 132.674 11.1875 132.424 10.9375C132.179 10.6823 131.879 10.5547 131.525 10.5547H129.76C129.411 10.5547 129.111 10.6823 128.861 10.9375C128.611 11.1875 128.486 11.4896 128.486 11.8438V14.0625Z" fill="#3C3C3C"/>
</svg>
